<svg xmlns="http://www.w3.org/2000/svg" display="none">
<symbol id="arrow">
    <path d="M17.75 2L9.875 9L2 2" stroke="#2BE427" stroke-width="4"/>
</symbol>
<symbol id="arrow__black">
    <path d="M17.75 2L9.875 9L2 2" stroke="black" stroke-width="4"/>
</symbol>
<symbol id="line">
    <rect x="1.375" y="1" width="17" height="3" fill="#2BE427" stroke="#2BE427"/>
</symbol>
<symbol id='burger'>
    <path d="M0 2.5C0 1.11929 1.13126 0 2.52674 0H22.0187C23.4142 0 24.5455 1.11929 24.5455 2.5C24.5455 3.88071 23.4142 5 22.0187 5H2.52674C1.13126 5 0 3.88071 0 2.5Z" fill="#3ACF18"/>
    <path d="M0 10C0 8.61929 1.13126 7.5 2.52674 7.5H22.0187C23.4142 7.5 24.5455 8.61929 24.5455 10C24.5455 11.3807 23.4142 12.5 22.0187 12.5H2.52674C1.13126 12.5 0 11.3807 0 10Z" fill="white"/>
    <path d="M0 17.5C0 16.1193 1.13126 15 2.52674 15H22.0187C23.4142 15 24.5455 16.1193 24.5455 17.5C24.5455 18.8807 23.4142 20 22.0187 20H2.52674C1.13126 20 0 18.8807 0 17.5Z" fill="#3ACF18"/>
</symbol>
<symbol id="burger__green">
    <path d="M0 2.25C0 1.00736 1.03699 0 2.31618 0H20.1838C21.463 0 22.5 1.00736 22.5 2.25C22.5 3.49264 21.463 4.5 20.1838 4.5H2.31618C1.03699 4.5 0 3.49264 0 2.25Z" fill="#23DB1F"/>
    <path d="M0 9C0 7.75736 1.03699 6.75 2.31618 6.75H20.1838C21.463 6.75 22.5 7.75736 22.5 9C22.5 10.2426 21.463 11.25 20.1838 11.25H2.31618C1.03699 11.25 0 10.2426 0 9Z" fill="#23DB1F"/>
    <path d="M0 15.75C0 14.5074 1.03699 13.5 2.31618 13.5H20.1838C21.463 13.5 22.5 14.5074 22.5 15.75C22.5 16.9926 21.463 18 20.1838 18H2.31618C1.03699 18 0 16.9926 0 15.75Z" fill="#23DB1F"/>
</symbol>
</svg>
